<svg width="726" height="340" viewBox="0 0 726 340" fill="none" xmlns="http://www.w3.org/2000/svg">
<path d="M620.544 0H371.399V256.02H620.544V0Z" fill="#D8DFFF"/>
<path d="M528.591 46.3101H410.237C400.284 46.3101 392.215 54.6017 392.215 64.8301V69.3301C392.215 79.5584 400.284 87.8501 410.237 87.8501H528.591C538.545 87.8501 546.614 79.5584 546.614 69.3301V64.8301C546.614 54.6017 538.545 46.3101 528.591 46.3101Z" fill="white"/>
<path d="M579.516 87.8401C590.679 87.8401 599.728 78.541 599.728 67.0701C599.728 55.5991 590.679 46.3 579.516 46.3C568.353 46.3 559.304 55.5991 559.304 67.0701C559.304 78.541 568.353 87.8401 579.516 87.8401Z" fill="white"/>
<path d="M392.215 111.18H599.728" stroke="white" stroke-width="2" stroke-linecap="round" stroke-linejoin="round"/>
<path d="M392.215 141.86H599.728" stroke="white" stroke-width="2" stroke-linecap="round" stroke-linejoin="round"/>
<path d="M392.215 172.54H497.353" stroke="white" stroke-width="2" stroke-linecap="round" stroke-linejoin="round"/>
<path d="M320.056 168.61H282.843C276.393 168.61 271.165 173.983 271.165 180.61V218.85C271.165 225.478 276.393 230.85 282.843 230.85H320.056C326.505 230.85 331.734 225.478 331.734 218.85V180.61C331.734 173.983 326.505 168.61 320.056 168.61Z" fill="#D8DFFF"/>
<path d="M322.8 190.63C331.227 190.63 338.059 183.61 338.059 174.95C338.059 166.29 331.227 159.27 322.8 159.27C314.373 159.27 307.541 166.29 307.541 174.95C307.541 183.61 314.373 190.63 322.8 190.63Z" fill="#49549A"/>
<path d="M1 190.54C2.22616 192.06 5.61272 194.16 7.96773 194.16" stroke="#1B3C87" stroke-width="2" stroke-linecap="round" stroke-linejoin="round"/>
<path d="M725.78 157.71H591.243V339.52H725.78V157.71Z" fill="#EAF0FF"/>
<path d="M725.78 157.71H591.243V182.89H725.78V157.71Z" fill="#D8DFFF"/>
<path d="M606.171 176.35C609.519 176.35 612.233 173.561 612.233 170.12C612.233 166.679 609.519 163.89 606.171 163.89C602.822 163.89 600.108 166.679 600.108 170.12C600.108 173.561 602.822 176.35 606.171 176.35Z" fill="#B2C3FB"/>
<path d="M624.631 176.35C627.979 176.35 630.694 173.561 630.694 170.12C630.694 166.679 627.979 163.89 624.631 163.89C621.283 163.89 618.568 166.679 618.568 170.12C618.568 173.561 621.283 176.35 624.631 176.35Z" fill="#B2C3FB"/>
<path d="M643.102 176.35C646.45 176.35 649.164 173.561 649.164 170.12C649.164 166.679 646.45 163.89 643.102 163.89C639.753 163.89 637.039 166.679 637.039 170.12C637.039 173.561 639.753 176.35 643.102 176.35Z" fill="#B2C3FB"/>
<path d="M644.727 203.44H607.552V256.44H644.727V203.44Z" fill="#D8DFFF"/>
<path d="M657.621 203.44H708.03" stroke="#B2C3FB" stroke-width="2" stroke-linecap="round" stroke-linejoin="round"/>
<path d="M607.552 285.52H708.03" stroke="#B2C3FB" stroke-width="2" stroke-linecap="round" stroke-linejoin="round"/>
<path d="M607.552 312.88H708.03" stroke="#B2C3FB" stroke-width="2" stroke-linecap="round" stroke-linejoin="round"/>
<path d="M657.621 230.8H708.03" stroke="#B2C3FB" stroke-width="2" stroke-linecap="round" stroke-linejoin="round"/>
<path d="M657.621 258.16H708.03" stroke="#B2C3FB" stroke-width="2" stroke-linecap="round" stroke-linejoin="round"/>
</svg>
